<svg viewBox="0 0 15.125 11.063" xmlns="http://www.w3.org/2000/svg" xmlns:xlink="http://www.w3.org/1999/xlink"><style>:root&gt;svg{display:none}:root&gt;svg:target{display:block}</style><svg viewBox="0 0 15 11" id="mail" xmlns="http://www.w3.org/2000/svg"><path d="M1-.008A.945.945 0 00.042.98l5.927 5.452a2.55 2.55 0 003 0l6-5.421a.981.981 0 00-.968-1.019H1zM0 2l3.018 2.979L.986 9.76l2.92-3.734 1.875 1.505s2.159 1.044 3.333.031L10.98 6l3.03 4-2.052-4.993L15 2v8.062a1.028 1.028 0 01-1.094.938H1.031A1.091 1.091 0 010 10V2z" fill="#868686" fill-rule="evenodd"/></svg><svg viewBox="0 0 15.125 11.063" id="phone" xmlns="http://www.w3.org/2000/svg"><path d="M9.782 3.474a4.5 4.5 0 011.947 1.606l1.3 3.333v1.635a1.046 1.046 0 01-1.042 1h-8.9a.917.917 0 01-1-1V8.33c-.018.312 1.219-3.26 1.219-3.26a3.522 3.522 0 012.013-1.573v-.521a.885.885 0 01.971-.922h2.5a.977.977 0 011.016 1zM3.924 1.919c.1.256.424.811.424.811L.793 4.53l-.61-1.227a1.244 1.244 0 01.612-1.791l1.04-.559A14.467 14.467 0 017.187.007h.625c4.062 0 5.477.946 5.477.946l1.04.559a1.243 1.243 0 01.611 1.791l-.651 1.227-3.513-1.8a4.949 4.949 0 00.419-.781c.078-.19.083-.038-.023-.129-.957-.815-3.235-.812-3.235-.812h-.75a9.619 9.619 0 00-3.219.7c-.078.054-.158.004-.044.211z" fill="#868686" fill-rule="evenodd"/></svg></svg>